# AST/ASF file generated using VICON BodyLanguage
# -----------------------------------------------
:version 1.10
:name VICON
:units
  mass 1.0
  length 0.45
  angle deg
:documentation
   .ast/.asf automatically generated from VICON data using
   VICON BodyBuilder and BodyLanguage model FoxedUp or BRILLIANT.MOD
:root
   order TX TY TZ RX RY RZ
   axis XYZ
   position 0 0 0  
   orientation 0 0 0 
:bonedata
  begin
     id 1 
     name lhipjoint
     direction 0.655637 -0.713449 0.247245 
     length 2.52691 
     axis 0 0 0  XYZ
  end
  begin
     id 2 
     name lfemur
     direction 0.34202 -0.939693 0  
     length 7.59371  
     axis 0 0 20  XYZ
    dof rx ry rz
    limits (-160.0 20.0)
           (-70.0 70.0)
           (-60.0 70.0)
  end
  begin
     id 3 
     name ltibia
     direction 0.34202 -0.939693 0   
     length 7.28717   
     axis 0 0 20   XYZ
    dof rx
    limits (-10.0 170.0)
  end
  begin
     id 4 
     name lfoot
     direction 0.0886837 -0.243657 0.965798   
     length 2.2218   
     axis -90 7.62852e-016 20   XYZ
    dof rx rz
    limits (-45.0 90.0)
           (-70.0 20.0)
  end
  begin
     id 5 
     name ltoes
     direction 1.53547e-011 -4.22004e-011 1   
     length 1.11249   
     axis -90 7.62852e-016 20   XYZ
    dof rx
    limits (-90.0 20.0)
  end
  begin
     id 6 
     name rhipjoint
     direction -0.645062 -0.722004 0.250209   
     length 2.49697  
     axis 0 0 0  XYZ 
  end
  begin
     id 7 
     name rfemur
     direction -0.34202 -0.939693 0   
     length 7.58734   
     axis 0 0 -20   XYZ
    dof rx ry rz
    limits (-160.0 20.0)
           (-70.0 70.0)
           (-70.0 60.0)
  end
  begin
     id 8 
     name rtibia
     direction -0.34202 -0.939693 0   
     length 7.21538   
     axis 0 0 -20   XYZ
    dof rx
    limits (-10.0 170.0)
 end
 begin
     id 9 
     name rfoot
     direction -0.102907 -0.282735 0.953662   
     length 2.23735  
     axis -90 -7.62852e-016 -20   XYZ
    dof rx rz
    limits (-45.0 90.0)
           (-20.0 70.0)
  end
  begin
     id 10 
     name rtoes
     direction -1.5354e-011 -4.21751e-011 1   
     length 1.11569   
     axis -90 -7.62852e-016 -20   XYZ
    dof rx
    limits (-90.0 20.0)
  end
  begin
     id 11 
     name lowerback
     direction 0.00952301 0.997604 -0.0685217   
     length 2.05943   
     axis 0 0 0   XYZ
    dof rx ry rz
    limits (-20.0 45.0)
           (-30.0 30.0)
           (-30.0 30.0)
  end
  begin
     id 12 
     name upperback
     direction 0.00494399 0.999577 -0.0286701   
     length 2.06523   
     axis 0 0 0   XYZ
    dof rx ry rz
    limits (-20.0 45.0)
           (-30.0 30.0)
           (-30.0 30.0)
  end
  begin
     id 13 
     name thorax
     direction 0.000729686 0.999992 0.00388603   
     length 2.06807   
     axis 0 0 0   XYZ
    dof rx ry rz
    limits (-20.0 45.0)
           (-30.0 30.0)
           (-30.0 30.0)
  end
  begin
     id 14 
     name lowerneck
     direction 0.00452882 0.995459 0.0950816   
     length 1.57426   
     axis 0 0 0   XYZ
    dof rx ry rz
    limits (-20.0 45.0)
           (-30.0 30.0)
           (-30.0 30.0)
  end
  begin
     id 15 
     name upperneck
     direction 0.021922 0.997711 -0.0639762   
     length 1.56399   
     axis 0 0 0   XYZ
    dof rx ry rz
    limits (-20.0 45.0)
           (-30.0 30.0)
           (-30.0 30.0)
  end
  begin
     id 16
     name head
     direction 0.008024 0.999444 -0.0323691  
     length 1.6265  
     axis 0 0 0   XYZ
    dof rx ry rz
    limits (-20.0 45.0)
           (-30.0 30.0)
           (-30.0 30.0)
  end
  begin
     id 17 
     name lclavicle
     direction 0.967826 0.247107 -0.0474446  
     length 3.6598  
     axis 0 0 0   XYZ
    dof ry rz
    limits (-20.0 10.0)
           (0.0 20.0)
  end
  begin
     id 18 
     name lhumerus
     direction 1 -4.48971e-011 -2.90544e-027   
     length 4.86513   
     axis 180 -30 -90   XYZ
    dof rx ry rz
    limits (-60.0 90.0)
           (-90.0 90.0)
           (-90.0 90.0)
  end
  begin
     id 19
     name lradius
     direction 1 -4.48958e-011 1.79638e-026   
     length 3.35554   
     axis 180 -30 -90   XYZ
    dof rx
    limits (-10.0 170.0)
  end
  begin
     id 20
     name lwrist
     direction 1 -4.48952e-011 3.34345e-026   
     length 1.67777   
     axis -2.22354e-014 90 90   XYZ
    dof ry
    limits (-180.0 0.0)
 end
  begin
     id 21 
     name lhand
     direction 1 -4.49055e-011 6.6869e-026   
     length 0.661175   
     axis -4.26681e-014 90 90   XYZ
    dof rx rz
    limits (-90.0 90.0)
           (-45.0 45.0)
  end
  begin
     id 22 
     name lfingers
     direction 1 -4.48731e-011 1.33738e-025   
     length 0.533057   
     axis -8.53362e-014 90 90   XYZ
    dof rx
    limits (0.0 90.0)
  end
  begin
     id 23
     name lthumb
     direction 0.707107 -6.35005e-011 0.707107   
     length 0.765366   
     axis -90 45 2.85299e-015   XYZ
    dof rx rz
    limits (-45.0 45.0)
           (-45.0 45.0)
  end
  begin
     id 24 
     name rclavicle
     direction -0.973174 0.211421 -0.0907389   
     length 3.59444  
     axis 0 0 0   XYZ 
    dof ry rz
    limits (-10.0 20.0)
           (-20.0 0.0)
  end
  begin
     id 25 
     name rhumerus
     direction -1 -4.48964e-011 1.56311e-027  
     length 5.02649   
     axis 180 30 90   XYZ
    dof rx ry rz
    limits (-90.0 60.0)
           (-90.0 90.0)
           (-90.0 90.0)
  end
  begin
     id 26 
     name rradius
     direction -1 -4.48948e-011 2.01724e-026   
     length 3.36431   
     axis 180 30 90   XYZ
    dof rx
    limits (-10.0 170.0)
  end
  begin
     id 27 
     name rwrist
     direction -1 -4.49008e-011 3.34345e-026   
     length 1.68216   
     axis -2.22354e-014 -90 -90   XYZ
    dof ry
    limits (-180.0 0.0)
  end
  begin
     id 28
     name rhand
     direction -1 -4.49013e-011 6.6869e-026   
     length 0.730406   
     axis -4.26681e-014 -90 -90   XYZ
    dof rx rz
    limits (-90.0 90.0)
           (-45.0 45.0)
  end
  begin
     id 29
     name rfingers
     direction -1 -4.48867e-011 1.33738e-025   
     length 0.588872   
     axis -8.53362e-014 -90 -90   XYZ
    dof rx
    limits (0.0 90.0)
  end
  begin
     id 30
     name rthumb
     direction -0.707107 -6.34907e-011 0.707107   
     length 0.845506   
     axis -90 -45 -2.85299e-015   XYZ
    dof rx rz
    limits (-45.0 45.0)
           (-45.0 45.0)
  end
:hierarchy
  begin
    root lhipjoint rhipjoint lowerback
    lhipjoint lfemur
    lfemur ltibia
    ltibia lfoot
    lfoot ltoes
    rhipjoint rfemur
    rfemur rtibia
    rtibia rfoot
    rfoot rtoes
    lowerback upperback
    upperback thorax
    thorax lowerneck lclavicle rclavicle
    lowerneck upperneck
    upperneck head
    lclavicle lhumerus
    lhumerus lradius
    lradius lwrist
    lwrist lhand lthumb
    lhand lfingers
    rclavicle rhumerus
    rhumerus rradius
    rradius rwrist
    rwrist rhand rthumb
    rhand rfingers
  end

#!OML:ASF H:\Terrain\Patient Classification 1\Takeo\Monday\TakeoMonday.ASF
:FULLY-SPECIFIED
:DEGREES
179
root 10.6284 18.1182 1.69957 1.53931 0.552995 -1.58131
lowerback 18.2257 -0.975276 0.26377
upperback 2.4015 -1.21873 0.131024
thorax -7.62578 -0.593096 0.287766
lowerneck -14.6371 0.628107 -1.34591
upperneck -2.18861 1.05262 -0.118226
head 1.79141 0.52623 0.256766
rclavicle -5.71506e-015 3.97569e-016
rhumerus -76.355 17.2574 -91.7871
rradius 80.7111
rwrist -39.038
rhand -28.6974 16.3763
rfingers 7.12502
rthumb -2.05944 -13.5935
lclavicle -5.71506e-015 3.97569e-016
lhumerus -57.9422 -33.6872 68.2158
lradius 75.6008
lwrist 26.0678
lhand -23.1232 15.197
lfingers 7.12502
lthumb 3.32413 45.1508
rfemur -20.3194 4.41646 22.9214
rtibia 44.0574
rfoot 2.95508 -3.31183
rtoes -21.4392
lfemur -20.1281 1.82461 -18.8962
ltibia 46.0305
lfoot 0.771391 5.06276
ltoes -25.8207
180
root 10.643 17.6968 1.6467 1.42329 0.846013 -1.34803
lowerback 19.1375 -1.00426 0.144592
upperback 2.55214 -1.28783 -0.00610292
thorax -7.95919 -0.622695 0.239817
lowerneck -13.854 0.539484 -1.01416
upperneck -3.69289 0.866628 -0.249623
head 1.15709 0.436234 0.137358
rclavicle 3.47873e-016 -1.59028e-015
rhumerus -75.8018 17.4528 -92.3304
rradius 80.1189
rwrist -39.7409
rhand -29.1471 15.6482
rfingers 7.12502
rthumb -2.49382 -14.317
lclavicle 3.47873e-016 -1.59028e-015
lhumerus -55.9791 -34.6789 68.1876
lradius 74.6408
lwrist 25.1938
lhand -22.1173 15.3112
lfingers 7.12502
lthumb 4.29552 45.2476
rfemur -21.3338 4.33805 22.836
rtibia 48.0348
rfoot -4.51185 -3.42048
rtoes -21.4173
lfemur -20.9266 1.87304 -19.3294
ltibia 49.2305
lfoot -6.75897 5.11716
ltoes -25.6451
181
root 10.6596 17.3125 1.60467 1.30923 1.2052 -0.686416
lowerback 20.0805 -1.01652 -0.296167
upperback 2.75767 -1.42033 -0.291806
thorax -8.24274 -0.674634 0.231298
lowerneck -13.9744 0.569775 -0.507764
upperneck -4.62394 0.82927 -0.606414
head 0.876112 0.407647 -0.0642316
rclavicle 1.69961e-014 -5.1684e-015
rhumerus -74.8044 17.5767 -92.8823
rradius 79.1731
rwrist -39.8908
rhand -29.5636 14.9042
rfingers 7.12502
rthumb -2.89599 -15.0559
lclavicle 1.69961e-014 -5.1684e-015
lhumerus -53.3448 -35.7064 67.9336
lradius 73.2595
lwrist 23.7334
lhand -22.1028 15.4724
lfingers 7.12502
lthumb 4.3095 45.4085
rfemur -22.1651 4.44762 22.1797
rtibia 51.5021
rfoot -12.1104 -4.05123
rtoes -19.1628
lfemur -21.4538 1.62368 -20.1831
ltibia 51.6675
lfoot -13.6915 5.32564
ltoes -22.5542
182
root 10.6679 16.9655 1.56552 1.58941 1.64102 -0.514092
lowerback 20.6072 -1.11435 -0.38565
upperback 2.81941 -1.57664 -0.381259
thorax -8.45919 -0.74574 0.236831
lowerneck -14.1177 0.683287 -0.207345
upperneck -5.30973 0.931774 -0.717795
head 0.678913 0.454866 -0.145574
rclavicle -6.95746e-015 3.97569e-016
rhumerus -73.3554 17.8289 -93.4216
rradius 77.5748
rwrist -39.7222
rhand -29.6147 14.8029
rfingers 7.12502
rthumb -2.94532 -15.1565
lclavicle -6.95746e-015 3.97569e-016
lhumerus -50.7044 -36.7586 67.9954
lradius 71.4393
lwrist 22.7278
lhand -23.3541 15.0887
lfingers 7.12502
lthumb 3.10116 45.0459
rfemur -23.1366 4.53792 22.0736
rtibia 54.1511
rfoot -19.2374 -4.99294
rtoes -16.3103
lfemur -22.1581 1.3225 -20.414
ltibia 53.3585
lfoot -20.1733 5.06222
ltoes -15.6096
183
root 10.6666 16.6472 1.52684 2.95759 1.98778 -0.404038
lowerback 20.1084 -1.18273 -0.651917
upperback 2.5929 -1.72067 -0.3562
thorax -8.42861 -0.805843 0.446981
lowerneck -14.3589 0.786429 -0.0881066
upperneck -5.81125 1.0494 -0.581028
head 0.556057 0.515553 -0.117703
rclavicle 4.96962e-015 3.97569e-016
rhumerus -71.5261 18.371 -94.0132
rradius 75.4814
rwrist -39.7306
rhand -29.7382 15.5384
rfingers 7.12502
rthumb -3.06459 -14.4193
lclavicle 4.96962e-015 3.97569e-016
lhumerus -47.9892 -37.6786 68.1714
lradius 69.347
lwrist 22.506
lhand -23.7269 15.2048
lfingers 7.12502
lthumb 2.74108 45.167
rfemur -25.171 4.53333 21.9907
rtibia 56.0957
rfoot -25.0344 -5.95057
rtoes -13.988
lfemur -24.1831 1.25727 -20.6181
ltibia 54.9292
lfoot -25.8253 5.06401
ltoes -11.2368
184
root 10.6651 16.3696 1.49637 4.89129 2.36424 0.319162
lowerback 19.1927 -1.18251 -1.49935
upperback 2.22323 -1.90342 -0.464907
thorax -8.30945 -0.868276 0.842645
lowerneck -15.1562 0.771699 0.00947614
upperneck -5.90426 1.01636 -0.4271
head 0.65723 0.499381 -0.0848181
rclavicle -4.27387e-015 -1.03368e-014
rhumerus -69.4409 18.8814 -94.4618
rradius 73.2296
rwrist -39.3432
rhand -30.1482 15.7627
rfingers 7.12502
rthumb -3.46056 -14.1889
lclavicle -4.27387e-015 -1.03368e-014
lhumerus -45.0119 -38.2759 68.3528
lradius 67.015
lwrist 22.3885
lhand -23.4575 15.9968
lfingers 7.12502
lthumb 3.00132 45.9555
rfemur -28.014 4.3213 21.2119
rtibia 58.4372
rfoot -29.9127 -6.76346
rtoes -10.5154
lfemur -27.1481 1.36664 -21.6771
ltibia 57.0237
lfoot -29.4954 6.65295
ltoes -13.0532
185
root 10.67 16.1156 1.45402 6.28005 2.9572 0.707367
lowerback 19.1471 -1.3178 -1.79464
upperback 1.90494 -2.15402 -0.541564
thorax -8.61936 -0.973274 0.996059
lowerneck -15.7611 0.673589 -0.0558551
upperneck -6.21688 0.89811 -0.137902
head 0.652872 0.447349 0.0122127
rclavicle -1.66979e-014 3.18055e-015
rhumerus -67.2293 19.1014 -94.6731
rradius 70.8458
rwrist -38.3514
rhand -30.5653 15.3132
rfingers 7.12502
rthumb -3.86341 -14.6315
lclavicle -1.66979e-014 3.18055e-015
lhumerus -42.0515 -38.4093 68.5142
lradius 64.5473
lwrist 21.8677
lhand -24.4447 16.4481
lfingers 7.12502
lthumb 2.04785 46.418
rfemur -30.6124 3.80223 21.0041
rtibia 61.3648
rfoot -32.6624 -9.11252
rtoes -13.1392
lfemur -30.3874 1.15534 -22.4198
ltibia 60.3311
lfoot -30.9952 8.33487
ltoes -14.9579
186
root 10.6821 15.8643 1.38122 7.30053 3.71001 1.37268
lowerback 19.8639 -1.54423 -2.1864
upperback 1.74515 -2.56815 -0.682775
thorax -9.16678 -1.14694 1.20015
lowerneck -16.5869 0.435757 -0.4558
upperneck -6.94658 0.656009 0.406681
head 0.546218 0.345951 0.238786
rclavicle 1.58034e-014 9.14409e-015
rhumerus -64.6299 19.183 -94.5097
rradius 68.2396
rwrist -36.9754
rhand -30.5132 15.4811
rfingers 7.12502
rthumb -3.81309 -14.4646
lclavicle 1.58034e-014 9.14409e-015
lhumerus -39.069 -38.113 68.4607
lradius 62.1749
lwrist 21.2189
lhand -25.9238 16.7134
lfingers 7.12502
lthumb 0.619387 46.6922
rfemur -34.348 3.80429 20.2679
rtibia 65.7863
rfoot -34.0134 -9.40216
rtoes -11.5797
lfemur -34.1543 0.0535113 -23.4339
ltibia 64.6691
lfoot -31.4101 9.17649
ltoes -13.7881
187
root 10.6886 15.57 1.28163 8.42099 4.54576 1.73082
lowerback 20.6078 -1.83099 -2.2912
upperback 1.77898 -2.98527 -0.694034
thorax -9.51886 -1.33159 1.38832
lowerneck -18.0275 0.269575 -0.794791
upperneck -7.91601 0.513943 1.00815
head 0.460221 0.297395 0.481023
rclavicle -9.74045e-015 -5.96354e-015
rhumerus -61.5588 19.0517 -94.0025
rradius 65.6604
rwrist -35.4949
rhand -30.1738 16.709
rfingers 7.12502
rthumb -3.48528 -13.2422
lclavicle -9.74045e-015 -5.96354e-015
lhumerus -35.917 -37.0458 68.0125
lradius 60.0423
lwrist 20.2944
lhand -25.7229 17.2542
lfingers 7.12502
lthumb 0.813373 47.2324
rfemur -38.5681 4.8521 19.8829
rtibia 70.5121
rfoot -34.2248 -11.5021
rtoes -13.1371
lfemur -38.642 -1.32357 -24.0361
ltibia 69.3917
lfoot -31.1836 9.83678
ltoes -12.0026
188
root 10.6806 15.3293 1.18164 9.23892 5.34126 0.714493
lowerback 21.4378 -2.14216 -1.2179
upperback 2.01628 -3.11556 -0.341193
thorax -9.74032 -1.42311 1.22981
lowerneck -19.2724 0.248429 -1.02284
upperneck -9.18076 0.554835 1.39316
head 0.238482 0.335323 0.645701
rclavicle 1.98785e-016 -1.03368e-014
rhumerus -58.3332 18.5706 -93.3032
rradius 63.2884
rwrist -34.3807
rhand -30.3626 18.0122
rfingers 7.12502
rthumb -3.66766 -11.936
lclavicle 1.98785e-016 -1.03368e-014
lhumerus -32.9238 -35.3267 67.4891
lradius 58.3611
lwrist 19.4802
lhand -26.09 17.2942
lfingers 7.12502
lthumb 0.458849 47.2735
rfemur -42.3147 5.49101 21.2872
rtibia 74.9908
rfoot -33.6335 -13.8108
rtoes -13.6556
lfemur -42.8436 -1.89608 -23.0572
ltibia 73.7897
lfoot -31.0542 9.45732
ltoes -9.18667
189
root 10.6677 15.2277 1.09418 9.54412 5.71533 0.307936
lowerback 22.6388 -2.2218 -1.01879
upperback 2.49498 -3.14496 -0.0932397
thorax -9.85162 -1.43453 1.43595
lowerneck -20.2096 0.172885 -1.33401
upperneck -10.7528 0.543422 1.51293
head -0.139126 0.344841 0.734947
rclavicle -1.80894e-014 1.59028e-015
rhumerus -55.0485 18.0058 -92.3573
rradius 61.1181
rwrist -33.5813
rhand -31.3945 18.1676
rfingers 7.12502
rthumb -4.66411 -11.7611
lclavicle -1.80894e-014 1.59028e-015
lhumerus -30.2241 -33.2937 67.2451
lradius 57.1441
lwrist 18.7096
lhand -28.1473 16.4103
lfingers 7.12502
lthumb -1.52816 46.3845
rfemur -44.9765 5.5694 22.1206
rtibia 78.5127
rfoot -32.5024 -15.4478
rtoes -12.6086
lfemur -45.2957 -1.85294 -22.8353
ltibia 76.8974
lfoot -31.2906 8.92622
ltoes -6.2631
190
root 10.666 15.117 1.01188 9.57552 5.87868 0.824943
lowerback 24.0455 -2.22613 -1.70966
upperback 3.08686 -3.32803 -0.122332
thorax -9.89733 -1.48999 1.89957
lowerneck -20.3304 0.133717 -1.43345
upperneck -13.1353 0.534516 1.53767
head -0.912648 0.344445 0.753607
rclavicle -6.20208e-014 8.74653e-015
rhumerus -52.014 17.4179 -91.5884
rradius 59.3067
rwrist -33.2879
rhand -33.0039 17.9657
rfingers 7.12502
rthumb -6.21794 -11.923
lclavicle -6.20208e-014 8.74653e-015
lhumerus -27.8118 -31.1829 67.0715
lradius 56.1714
lwrist 17.5397
lhand -29.1282 15.7394
lfingers 7.12502
lthumb -2.47557 45.7048
rfemur -47.2664 5.39144 21.8159
rtibia 81.5825
rfoot -31.6814 -16.4359
rtoes -12.3664
lfemur -46.5574 -1.80465 -23.7356
ltibia 79.013
lfoot -31.3 9.40482
ltoes -5.34867
